<svg width="30" height="21" viewBox="0 0 30 21" fill="none" xmlns="http://www.w3.org/2000/svg">
<path d="M29.9805 1.6748C29.9388 1.38297 29.8024 1.11246 29.5918 0.904051C29.3812 0.695641 29.1079 0.560632 28.813 0.519379L28.7935 0.5H1.20649L1.18702 0.519379C0.892136 0.56062 0.618789 0.695624 0.408199 0.904035C0.19761 1.11245 0.0611948 1.38297 0.0195228 1.6748L0 1.69407V19.3059L0.0195228 19.3253C0.0611948 19.6172 0.19761 19.8877 0.408199 20.0961C0.618789 20.3045 0.892136 20.4395 1.18702 20.4807L1.20649 20.5H28.7934L28.813 20.4806C29.1079 20.4395 29.3813 20.3045 29.5919 20.0961C29.8024 19.8877 29.9388 19.6171 29.9804 19.3253L30 19.3059V1.69407L29.9805 1.6748Z" fill="#A7B84A"/>
<path d="M0 4.33203H29.9999V9.42091H0V4.33203Z" fill="#041C2C"/>
<path d="M26.2016 12.877H4.00296C2.62708 12.877 1.51172 13.9808 1.51172 15.3424C1.51172 16.704 2.62708 17.8078 4.00296 17.8078H26.2017C27.5776 17.8078 28.6929 16.704 28.6929 15.3424C28.6929 13.9808 27.5775 12.877 26.2016 12.877Z" fill="white"/>
</svg>
