<?xml version="1.0" encoding="UTF-8"?>
<svg id="Layer_1" xmlns="http://www.w3.org/2000/svg" version="1.1" viewBox="0 0 291.5 190.2">
  <!-- Generator: Adobe Illustrator 29.6.0, SVG Export Plug-In . SVG Version: 2.1.1 Build 207)  -->
  <defs>
    <style>
      .st0 {
        fill: #fff;
      }
    </style>
  </defs>
  <g>
    <g>
      <path class="st0" d="M169.9,12.2h-8.3c1.2,1.8,1.6,4.6,1.7,7.7,0,0,.4,13.4.4,15.5h-24.4s.2-15.3.2-15.4c.1-3.1.5-5.9,1.7-7.7h-8.3c1.2,1.8,1.6,4.5,1.7,7.6,0,9.2.2,23.8.2,25.6h-25.6s-.2-25.7-.2-25.8c.1-3,.5-5.8,1.7-7.5h-8.1c1.2,1.7,1.6,4.5,1.7,7.5l.5,26.8c0,.4-.1,4.2,1.8,4.5h30.8c1.9-.2,1.9-4,1.8-4.5v-5.7h27.1c1.9-.2,1.9-4,1.8-4.5,0,0,0-16.3,0-16.5.1-3.1.5-5.9,1.7-7.7h.1Z"/>
      <path class="st0" d="M159.6,47.7c0,1.7-1.4,3.1-3.1,3.1s-3.1-1.4-3.1-3.1,1.4-3.1,3.1-3.1,3.1,1.4,3.1,3.1Z"/>
      <path class="st0" d="M124.7,15.4c0,1.7-1.4,3.1-3.1,3.1s-3.1-1.4-3.1-3.1,1.4-3.1,3.1-3.1,3.1,1.4,3.1,3.1Z"/>
      <path class="st0" d="M168.1,47.7c0,1.7-1.4,3.1-3.1,3.1s-3.1-1.4-3.1-3.1,1.4-3.1,3.1-3.1,3.1,1.4,3.1,3.1Z"/>
      <path class="st0" d="M281,5.8c0,1.7-1.4,3.1-3.1,3.1s-3.1-1.4-3.1-3.1,1.4-3.1,3.1-3.1,3.1,1.4,3.1,3.1Z"/>
      <path class="st0" d="M289.4,5.8c0,1.7-1.4,3.1-3.1,3.1s-3.1-1.4-3.1-3.1,1.4-3.1,3.1-3.1,3.1,1.4,3.1,3.1Z"/>
      <path class="st0" d="M284.6,19.7c.1-3.1.5-5.9,1.7-7.7h-8.4c1.2,1.8,1.6,4.6,1.7,7.7,0,0,.4,14.1.4,15.7h-23c.3-1.2.5-2.5.5-3.7,0-4.5-1.9-7.4-3.5-9.1-.9-.9-1.9-1.7-3-2.2-4.1-2-9.5-2-13.3,0-1.3.7-2.2,1.4-3,2.2-1.6,1.6-3.5,4.6-3.5,9.1s.2,2.5.5,3.7h-19.7V14.5c-.2-1.9-4-1.9-4.5-1.8h-11c-3.1-.1-5.9-.5-7.7-1.7v8.5c1.8-1.2,4.6-1.6,7.7-1.7h4.1c2-.1,5-.1,5.9-.1v17.9h-7.7c0,0-15.2-.2-15.2-.2-.2,0-.5,0-.6-.1-.8-.3-1.5-1.1-1.5-1.1l-.4-.4-.2.5-3.5,8.8c1.1-.6,2.6-1.1,4.2-1.5,1.5-.4,4.6-.5,5.2-.5h47.4c.2.4.5.6.8.9.8.8,1.6,1.5,2.5,2,1.6,1,3.6,1.6,5.7,1.9h2.1c2.1-.2,4-.9,5.7-1.9.9-.6,1.7-1.2,2.5-2,.2-.3.5-.6.8-.9h28.2c1.9-.2,1.9-4,1.8-4.5,0,0,0-11.1,0-15.2v-1.5l.2-.2ZM244.4,41.5c-4.2,0-7.7-4.2-7.7-9.2s3.5-9.2,7.7-9.2,7.6,4.1,7.6,9.2-3.4,9.2-7.6,9.2Z"/>
    </g>
    <g>
      <path class="st0" d="M278.7,67.3c1.2,1.8,1.6,4.6,1.7,7.7l.9,35.9c-.7-.8-31.9-41-33-42.2-.7-.7-1.9-2.2-2.4-2.2s-.8.8-.8,3.5v43.8c-.2,3-.6,5.7-1.8,7.4h7.6c-1.2-1.7-1.6-4.4-1.7-7.4l-.9-36.5c2.2,2.5,34.4,44.4,35.4,44.4s.8-.8.8-3.5v-40.7c0-.8,0-1.6.1-2.5.1-3.1.5-5.9,1.7-7.7h-7.6Z"/>
      <path class="st0" d="M168.1,75.5c-4.9-5.1-11.4-7-17.3-7.8-1.9-.2-3.7-.3-5.5-.4h-11.2c.8.5,1.1,2.5,1.2,4.7v.5c.1,2.3.1,3.7.1,15v12.7c0,5.6,0,10.5-.2,13.7,0,.8-.1,1.5-.2,2-.3,2-.1,3.4-1.5,5.1,0,0,0,0,0,.1,1.3,0,10,.1,10.9.2,1.4.1,5,.2,6.3,0,8.9-1,13.9-5.2,16.5-7.9,4-4.3,7.8-11.2,7.8-20.3s-3.4-13.9-7-17.7h0ZM162.8,112.6c-3.5,3.5-8.2,5.7-13.4,6.4-4.7.2-6.2-1.6-7-2.6-.6-.8-.7-3.7-.8-5.4,0-1.3-.1-8-.1-15.6v-8.3c0-5.6,0-12.9,0-15.3,0-.8.2-1.2.8-1.5.2-.1.8-.2,1.4-.2,6.5.5,12.6,2.4,17.9,7.9,2.9,3.1,6.9,8.4,6.9,17.6s-2,13.5-5.7,17.2h0Z"/>
      <path class="st0" d="M186.4,93.9c0-.3.1-.5.5-.5,1.2,0,13.5.5,15.5.7.1-1.6.4-3,.5-3.9-1,.2-2.2.4-3.4.4-.7,0-11.8.1-12.7.1s-.4-.2-.4-.7v-19.6c0-.5.1-.7.4-.7.8,0,15.6.5,16.8.6.2-2,.6-3.4.6-3.5-.8.1-1.8.2-2.7.2h-18.2s-3.5-.2-3.5-.2c.3,1.1.5,2.5.5,4.2v29c0,6-.1,15.9-.1,16.7,0,1.5-.2,2.9-.4,3.9,1.6,0,3.4,0,3.5,0,1.1,0,2.8,0,5.6.2,2.8,0,6.7.2,12.1.2s3.4,0,3.9-1.9l.2-2.4c-1.9.8-8.6,1.4-10.5,1.4-7,0-8.1-.9-8.3-5.9,0-1.5,0-9.8,0-12.2v-6.3h0Z"/>
      <path class="st0" d="M218.7,93.9c0-.3.1-.5.5-.5,1.2,0,13.5.5,15.5.7.1-1.6.4-3,.5-3.9-1,.2-2.1.4-3.4.4-.7,0-11.8.1-12.7.1s-.4-.2-.4-.7v-19.6c0-.5.1-.7.4-.7.8,0,15.6.5,16.8.6.2-2,.6-3.4.6-3.5-.8.1-1.8.2-2.6.2h-18.2s-3.5-.2-3.5-.2c.3,1.1.5,2.5.5,4.2v29c0,6-.1,15.9-.1,16.7,0,1.5-.2,2.9-.4,3.9,1.6,0,3.4,0,3.5,0,1.1,0,2.8,0,5.6.2,2.8,0,6.7.2,12.1.2s3.4,0,3.9-1.9l.2-2.4c-1.9.8-8.6,1.4-10.5,1.4-7,0-8.1-.9-8.3-5.9,0-1.5,0-9.8,0-12.2v-6.3h0Z"/>
      <path class="st0" d="M131.4,121.1c-2.8-2.4-4.8-5.1-5.8-7.5-.6-1.1-16-41.3-17.3-44.7-1.1-2.8-1.5-3.2-2-3.2s-.9.5-2,3.5l-9.2,25.3-.6,1.5c-5.4-13.6-9.1-23.7-10.5-27.1-1.1-2.8-1.4-3.2-2-3.2s-.9.5-2,3.5l-9.8,26.7c-4.9-12.6-9.8-25.4-10.4-26.9-1.1-2.8-1.4-3.2-2-3.2s-.9.5-2,3.5l-20.3,55.6c-1.6,4.5-3.5,7.6-6.8,9.8h13.5c-.9-.5-2.6-2-2.6-3.8s.5-3.7,1.2-6l5.4-15.9c.2-.5.5-.7.9-.7h10.1l1.2-3.2h-10.2c-.3,0-.5-.2-.3-.6l7.9-24.2c.5-1.3.9-1.3,1.3,0l8.5,24.2,1.6,4.4,7,18.4,1.2,3.3c.1.4.2.7.2,1.1v.4c-.1,1.3-.8,2.5-.8,2.5h13.6c-1.9-1.4-3.8-3.7-5.4-6.4-.2-.4-1.8-3.5-2.4-5.2,0-.1-3.7-9.7-8-20.7l7.1-22c.5-1.3.9-1.3,1.3,0l12,33.3,10.5-32.6c.8-2.1,1.3-2.1,1.7-.8l12.9,36.8c.1.4.2.8.2,1.1,0,1.5-.8,3-.8,3h13.7Z"/>
      <path class="st0" d="M37.2,70.2c1.6,0,2.9.1,3.9.3,1.7.2,3.6.7,5,1.5-.4-1.9-.9-4.3-1.1-4.6-.1-.3-.2-.8-.4-1.1-2.2.6-6,.9-8,.9H11.5c-2,0-5.8-.3-8-.9-.2.3-.4.8-.4,1.1,0,.4-.6,2.7-1.1,4.6,1.4-.8,3.4-1.3,5-1.5,1-.2,2.3-.3,3.9-.3h10.5c0-.1,0,32.1,0,32.1,0,6.1,0,11-.4,13.8,0,.3-.3,3.7-1.6,5.2,1.7,0,4.8-.2,4.9-.2h-.2.2c0,0,0,0,0,0h.2-.2.9-.6c.4,0,1.1,0,1.9,0h.4c.6,0,1.4,0,2.2,0-1.1-1.1-1.4-3-1.5-4.2,0-.4-.1-1.1-.2-2.1-.2-2.9-.2-7.3-.2-12.6v-32.3h8.9c0,.1.9.1.9.1h0Z"/>
    </g>
  </g>
  <g>
    <path class="st0" d="M117.3,173.5c-.4.9-.9,1.8-1.6,2.6-1.2,1.3-3,2.5-6,2.5-4.7,0-8.3-5.2-8.3-11.1s3.6-10.8,9.4-10.8,5.9,2.5,6.6,2.5,1-1.3,1.3-1.9h1.3c-.2,1.1-.2,2.3-.2,3.3v12.6c0,1.4.2,4,3.1,4.1h4.9v1.2h-3.5c-3.3,0-6.1-.5-6.9-5.1h0ZM110.8,157.9c-4.2,0-6.1,4.7-6.1,9.9s3.5,9.5,5.7,9.5,5-1.8,5.9-4.5c.5-1.6.6-3.3.6-6,0-4.2-.6-8.9-6-8.9h0ZM108.6,151.7c-1,0-1.8-.7-1.8-1.7s.8-1.9,1.8-1.9,1.8.8,1.8,1.9-.8,1.7-1.8,1.7ZM114.8,151.7c-1.1,0-1.8-.7-1.8-1.7s.8-1.9,1.8-1.9,1.8.8,1.8,1.9-.8,1.7-1.8,1.7Z"/>
    <path class="st0" d="M126.8,177.3h9.3c-3.2-1.9-5-5.9-5-9.7,0-5.5,3.6-10.9,9.6-10.9s7.5,2.5,7.5,5.4-.9,2.4-2.3,2.4-1.8-.9-1.8-1.9.9-1.9,2.2-1.9c-1.6-2.1-3.1-2.6-5.4-2.6-3.6,0-6.5,3.3-6.5,9.7s2.5,9.7,6.4,9.7h2.1c1.8-.1,1.9-.3,4-1.6l.9.9c-2.4,1.3-2.7,1.9-6.6,1.9h-14.5v-1.2h.1Z"/>
    <path class="st0" d="M176.8,178.5h-6.9c-1.6,7.3-6.9,9-10.7,9s-1.3,0-3.1-.2c4.3-.9,9.2-2.2,10.8-8.8h-6.3c-3,0-6.9-2.9-6.9-7.4,0-8.4,5.7-13.7,13.6-13.7h3.1v17c0,1.1-.1,2-.3,2.9h6.6v1.2h0ZM167.4,174.7v-15.9c-.4-.1-.8-.1-1.1-.1-4.6,0-9.5,4.9-9.5,12.3s1.6,6.3,4.9,6.4h5.5c.1-.9.2-1.6.2-2.6h0Z"/>
    <path class="st0" d="M206.1,178.5c-3.3,0-5.1-1.4-6.9-4.1-1.1,3.3-4.2,6.2-9.1,6.2s-6.3-2.5-7.7-4.5l-.2-.2c-1.2,1.6-2.4,2.6-5,2.6h-1.4v-1.2h1.4c.4,0,1.6-.2,2.2-.9,4.8-4.4,1.3-15.6,11.9-15.6s8.4,5.7,8.4,10.1,0,1.2-.1,1.7c.8,2.4,2.7,4.7,5.3,4.7h1.5v1.2h-.4,0ZM190.7,161.9c-5.5,0-4.9,8.1-7.6,13,.2.1.4.3.4.4,1.3,1.5,3.4,4.2,7,4.2s6.3-3.7,6.3-8.3-2-9.1-5.9-9.3h-.1,0Z"/>
    <path class="st0" d="M267,178.5c-3.4,0-5.1-1.4-6.9-4.1-1.1,3.3-4.2,6.2-9,6.2s-6.4-2.5-7.8-4.5v-.2c-1.3,1.6-2.5,2.6-5.2,2.6h-32.4v-1.2h22.3c0-11.4-4.2-17.3-8.5-17.3s-7.5,3.7-8.8,8.1l-1.2-2.2c.7-.4,1.1-.6,1.9-1.9,1.6-2.7,3.9-5.3,8.4-5.3,7.4,0,11.9,9.5,11.9,18.6h6.6c.4,0,1.6-.2,2.3-.9,4.8-4.4,1.3-15.6,11.9-15.6s8.4,5.7,8.4,10.1,0,1.2-.1,1.7c.8,2.4,2.7,4.7,5.3,4.7h1c3.2,0,4.5-1.9,4.5-4.9v-21.4c0-1.2,0-1.6-1.7-2.1l4.7-.9v24.4c0,3.9-2.6,6.1-6.4,6.1h-1.1,0ZM220.1,187c-1,0-1.8-.7-1.8-1.8s.8-1.8,1.8-1.8,1.8.8,1.8,1.8-.8,1.8-1.8,1.8ZM251.6,161.9c-5.4,0-4.9,8.1-7.6,13,.1.1.3.3.4.4,1.3,1.5,3.4,4.2,7,4.2s6.3-3.7,6.3-8.3-2-9.1-5.9-9.3h-.2Z"/>
    <path class="st0" d="M281.5,151.1c0-1.2,0-1.6-1.7-2.1l4.7-.9v30.5h-3v-27.5Z"/>
  </g>
</svg>